<?xml version="1.0" encoding="UTF-8"?>
<svg id="Capa_1" data-name="Capa 1" xmlns="http://www.w3.org/2000/svg" viewBox="0 0 865.62 811.36">
  <defs>
    <style>
      .cls-1 {
        fill: #edd296;
        stroke: #2aaad4;
        stroke-linecap: round;
        stroke-linejoin: round;
        stroke-width: .5px;
      }
    </style>
  </defs>
  <path class="cls-1" d="M341.3,737.15l5.95-4.19.71-3.44,5.62-2.75,6.9-7.35,1.5-3.51,3.93-1.88,2.96-6.03,5.09-3.55.61-2.35,2.28-.64-.07-1.83,4.38.47.64-1.53-2.26-1.96,6.88-3.18,2.64-3.41,5.91-1.34-1.08-1.51,3.49-.85,2.24-4.38,2.4.52,2.09-2.05,2.94.12.09-1.03,3.27.4,2.28-3.84,1.77.87,2.66-2.73,2.78.05,2.45-5.23-1.29-3.96,2.35-9.44-3.58-6.19-1.58-6.92-1.2.49-2.4-2.14-.33.99-.37-2.14-2.05.76.52,1.03h-4.28l-1.08,2.24-3.18-2.36.05-3.69,3.56-5.16-.75-2.33,4.17-14.12-1.51-4.35,1.86-2.05-8.19-5.11-10.94,4.42-5.32-1.3-.5-4.54-1.77-2.75-.1-7.79-2.12-4.75.3-7.53-2.09-1.43-.76-3.7-2.09-2.12-7.34-.3-4.03-4.16-2.16.33-2.85,3.58-1.39-1.01-2.92,1.62-.99-1.16-10-.49-4.76-.76-1.03-1.58-3.76.89-2.96-1.43,1.88-8.03-1.11-3.74,1.95-3.7-1.01-1.15,1.46-2.1.35-4.59-2.03-.99,1.15-1.53-1.67-.8,1.67-1.32-1.22-1.25-1.29.47-.19-5.39-3.46-3.56-.05-2,6.21-3.86-5.51-5.2,6.99-13.94,1.51-.3-.33-2.56-1.04-.24,4.47-13.6,2.1-.8-1.77-.71-3.72-7.01-1.46-6.5-4.36-.76-8.08-5.39-1.69-11.51,2.87-4.38.05-3.82-2.59.89-35.26-1.39-1.77-16.34-6.99-7.89,6.5-.31-.47-9.42-3.58-7.32-.19-3.36,1.79-2.78-1.77-3.84-11.42-5.46-.52-1.48-2.12,1.15-14.29.43-5.67-6.07-.1-2.05-6.43-.49-5.46-3.36-2.16.73-4.1-3.25-1.83-3.98-5.04,1.03-3.49-2.99-6.55-2.14-2.49,1.86-7.61-.99-4.21-2.56v-2.8l-3.63-1.22-.52-1.58-1.04.83-1.1-2.33-4.26-.75-1.43-5.06-.99-1.3-.78,1.72-.94-.66.61-2.63-3.16-2.89-.14-3.09-1.27-1.04-.16-2.57,1.98-3.82-2.19-3.55-.94-6.88,3.42-5.42-1.08-4.97.78-2.63-2.05-3.22-3.86,3.13-4.26-2.16-.37,1.06h-5.84l-11.54,2.57-8.76,7.25-5.39,1.29-5.42,3.81-2.85,4.22-6.69-.8-5.2,6.48-6.69,2.78-3.34.57.38-2.66-.97-.37-12.29-1.23-11.65-.33-6.92,3.03-3.08-.59-2.02-2.05-2.23,1.51.05-24.08,2.02-2.99-1.72-2.96,1.25-.02.82-2.8-16.1,11.7-18.64.24.7-2.66-2.14-2.4-.99-4.76-10.4-2.54-8.35-.03,5.04-5.7-.09-3.09-4.12-5.51-3.67-2.54-.12-2.47-3.82-2.5-2.64-7.18-2.43-1.53,1.51-3.16-6.36-5.08,1.55-1.98-.82-1.91,5.62-1.08-2.07-4.19,1.11-4.49,12.71-8.55-1.81-8.28,5.35-8.85,1.23-10.81,5.67-1.48,5.39-5.55,9.94-5.72,11.32-1.23,2.03-1.74,6.15.19,2.85-4.28,3.84-1.32,1.29,1.63.73-1.11.71.87,3.84-.82.3,2.16,2.31,2,1.39-1.72,2.1,1.67,1.36-1.03,11.91-64.62-.9-3.62-3.86-5.72.92-1.84-.75-2.5-9.32-7.56.3-15.56,9.04-1.3,2.94-1.7,3.76,2.38,3.32-.66-1.15-1.63.83-2.89-2.83-3.55-11.72-.45-.07-13.47,6.52-1.34,3.95,1.08,24.72-.02-2.43-2.24,1.83-3.86,3.34,4.94,2.14.75,10.48-8.24,1.74.99,4.64,7.91.66,11.09,4.38-.97,12.26,9.91,3.15.31,8.08-5.06,3.09-.19,1.65,2.52-1.43,3.55,1.83.7,3.55-5.23,2.57-.28,1.37-4.22,6.19-2.99,2.26.49,6.68-5.41,1.18,2.94,5.39-5.34,1.18-6.33,12.99-4.62.82-2.43-.26-3.2-13.79-1.06,1.04-5.06-4.68-8.5.42-9.79-9.14-7.86-3.55-4.94.45-1.53,1.91.42,2.28,3.01,9.21.17,2.26,4.75,7.61-1.32,3.36,1.9,1.77-2.36,1.53.21,7.37,7.48,2.23.8,2.92-2.07-.35-7.49,4.26-.37.5-1.81,2.26-1.2,5.7,1.93,2.47-1.46,3.06.21,2.73-2,4.24-.17,1.04-3.06,4.35-.96-.47-1.51,7.04-.3,1.69-3.62,3.69-1.56,2.63-3.44-1.5-4.59-1.56-.66,6.03.59,4.9-1.95,4.78,3.77-1.03,7.49-2.64,4.12,7.28,1.29,2.56,1.76-1.08,3.7,4.38,5.48-3.3,5.18-3.67,2.26.85,4.68-3.56,10.38,1.67,9.94,3.56,2.38-.35,8.36,2.33.45-.71,1.72,3.11,1.13,5.63,6.55,6.1,1.62,2.75,2.57,2.83-1.98,3.72.3.1-3.56,2.64-1.08,1.37-2.29,6.1,1.76.87-2.94,8.81-1.06,5.02-5.58,1.69.59,2.78-1.51,1.95,2.14,4.24.94,6.76-1.41,10.97,1.83.73-4.09-4.75-4.28,3.65-5.7,5.13,2.76,6.76-.68,1.63-1.84,4.16-.14,3.36-1.74-.4,1.37,2.05,1.98,3.67.03-.02,2.5,2.42.02,2.31,2.29,7.11,2.16,7.68-5.37.47,1.25,4.38,1.27,3.89-2.12,2.29,2.05-.71,1.15,6.42.42,7.67-6.85,4.9-13.44,2.64-2.26,9.25-14.99,3.15-1.81.96-3.44,3.09,6.33-2.29-6.76.63-3.88,6.85,7.53.23,8.95.83-4.55,1.16-.31-.26,10.52,1.58,7.09,7.01,17.96-2.35.19.26,1.9,1.62-1.23,1.72.52,3.18,6.03,6.28-.02,4.45,1.96,1.41,8.61-5.55,1.79,5.44.96-1.89,2.14-1.1-.7-8.76,9.18-7.02,10.29-3.93,1.01-2.1,3.18-5.11.97,1.58.99-4.21,7.48-2.64.8.99.56-3.76,5.02-.03,4.87-4.45,3.13-.1,3.36-2.73,1.36-3.58-1.22-9.77,5.27,8.92-1.7.38,3.69,1.16-.1,19.14-9.54,5.82-4.52.12-1.9,3.29-.19.26,2.75-2.69,1.72,2.83,2.16.02,4.24,3.42,6.28h-1.72l.42,1.76-1.46,1.56-1.91-.96.73,2.16,4.87-2.94,2.99,2.36-.37,1.04.85-.87.57,2.85,2.14-3.42,3.13.16,3.84-1.86,2.24,1.29-.38,4.14.71-.87.85,1.3-.71-4.29.3.99.45-1.01,2.8.16,1.74,2.14-1.3-2.42,2.45-.71,1.08-2.02,1.32.31-.61.96-.07.64.4.5,1.34.52-.21,1.79-3.42,10.92-2.45,3.36,2.83-1.03,6.14-14.13,5.53-7.25,2.28-.85-3.67,5.98,2.16-1.22,5.65-8.41,4.76,5.81-1.13-3.15,3.27-.85-3.56-.19.3-3.74.97-1.3.21,1.63,1.89.35.61-2.61,1.15.02-.59-1.27,1.15-.3-1.43-1.46,2.17-.52.97-2.43-.28-2.49,2.42-2.5,1.56,2.5,2-2.26,1.32.37-.14-2.61.82,1.5.94.14-.09,2.35,2.47-1.3.54-2.4,1.83,3.88,2.16.99v-1.36l-1.58-.35.14-2.87h1.3l-.31.43v.99l.16.42,2.35-1.84.8,1.72.26-1.15.94.64-.8,1.36,1.56-.73-.7,1.65,1.15.78,1.29-2.76.42,4.19,1.84-3.56.97,2.89-.85.63.33.76,2.66-3.95.75,3.95.57-1.7.85,1.22-.73,1.36,1.08-1.3.19-1.13,1.16.76-.49-1.27,1.2,1.36-.43,1.43-1.01-.28-1.44,1.29-.26.71,6.69-3.11-.99,3.67,2.29-.76.83,2.05.57-1.56,1.01,1.29-.63-2.24,1.63-1.63-1.29,5.74,2.56-1.44-.14,1.3.92-2.14,1.06,2.83,1.48-3.22.64,1.79-1.13,1.06,1.13,1.22,1.69-3.89-.68,4.03,1.29-1.15-.05,1.6.61.97,1.86-3.98.96,4.82,2.75-2,.3,3.03,2.36-2.66-2.64,4.22.85-.43.85,1.58,2.8-4.85.63,2.14-2.17,3.01,1.25.47.35,3.36,2.12-1.5-.54-1.95,1.76-2,1.76.02.33-1.13,1.98,2.43-1.1.68-.03.45,1.13-.14,2.07-3.58-1.37,4.87,1.01-1.15.78.85.37-.14-.14-1.43,1.32,3.29-1.01.73,2.36-.87-2.12,1.98,2.71-.03.56-1.95,1.15.56-1.29,1.98,2.69-.12-1.27,1.41,1.44-.14.7,1.93-2.69,1.06,2.56.14-4.14,4.57-1.2-.28-1.51.56,3.3-.17-1.15,2.73,1.18-.94v1.32l.23.19.43-3.29,3.55-2.64,2.03,3.95-.66,1.41-2.4-.73-.85.5.92-.02-.3,2.28-2.8,1.95,2.4-1.15-3.03,7.88-.16,1.62,1.5,1.16-3.32,3.04-.3,2.14,7.55-7.27,1.34-8.33,1.65.63-.07-2.05,5.35-1.37-1.2.59,1.23,1.44-2.16,3.27-1.6-.03-2.8,2.94,3.37-1.06-.3,2.28,1.96-2.47.78.94,3.01-5.16.94,1.84-.02-1.34,3.22-1.95.07,1.72,1.58-1.72-.43.73,2.57.26.1-1.84,1.76,2.43-.16-2.29,1.01.3-1.56-1.29,1.27-1.2,15.09,4.69,2.47,2.26,1.95-.07.71,1.74,3.93.14.52,1.56,6.14.07-1.39-2.29,3.58.05,3.16,3.04,7.13.92,2.05,1.96-1.46-2.33,1.2-.57,3.63.87-.43-.87,5.7.16,6.85-2,10.67,1.29,20.81,11.39,6.76,5.82,3.79.43,9.3,11.23,5.42,3.3,3.36,4.4,6.54,2.28,2.28,4.02,5.91.57,2.24,2.35,5.13,1.58-.75-.97,6.21.49,5.91-1.18,10.12,2,2.5,2.1,3.48,7.02,2.45,8.59.24,3.95-1.2.63,2.35.43,1.98,11.01,1.72,3.09-1.15,4.49,1.56-3.29.96,4.22-.23,7.02-2.59.87,2.57,1.39-.52,1.22-.9-1.32-.7,2.42.87-.33-.56.94-.02.87,1.7,2.66-.83,2.82-1.62-.7,1.01,1.13-1.2,5.35-7.61,17.59-8.14,9.98-1.7.56.66-1.22-1.11-1.18-1.22,3.11-.97-2.28-1.2-.3,1.86,3.01,1.3-.21-12.41,15.73-10.29,5.63-4.89,7.34-2.85-2.14,2.63,3.41-3.77,4.85-1.5-.43,2.71-3.11-.57-1.15-.12.99-.8-1.2.5,1.77-2,2.83-1.13-.99,1.55,1.63-2,1.65,2.73-1.29-6.12,12.36-13.84,18.41-4.4,1.69,1.15-1.69-.66-4.42-2.43-.42-1.36-2.73-2.4,5.49-1.2-.83.05-2.94-1.29,1.72,1.44,2.38,2.69.45-3.55,4.31,1.84,1.32-2.94,2.14-.14,2.61-1.77-.83-1.56,5.55,2.16-2.12.66,7.04-2.33-2.56-1.18.5,3.2,2.63-1.65.64,1.96,3.46-1.89.33-.07,1.32.71.73-.49-1.36,2.21-.92-.68-2.8,1.25-.7.12,2.21-2.97,13.94,4.26,24.51-7.22,27.19,1.5,10.76-2.87,3.89-3.63,1.69-4.36,6.76-1.77,8.48.9,14.43-1.76,4.69-5.01,3.39-2.71,4.03-1.56,6.4-2.83-.71.07,1.9,2.21-.03-1.86,3.7-4.87,6.28-3.65,1.29-6.21,12.88,1.29,11.04-13.94,5.55-6.24,5.29-.56,3.41,1.22,1.44,1.36-.35-2.5,1.55-.49,3.22-10.78-.99-10.38.83-2.07-1.13,2.19-3.82-1.04-1.46-4.05,1.7,2.07,4.62-8.1,2.03-9.21.49,2.33-1.44,5.98-.3-5.11-2.4-4.29.99-2.69,2.28-3.46-1.04.56-1.62-1.77.33-6.02,3.55-.16,2.23,1.69-.4-.5,1.86,1.96-1.2,1.15,1.44-6.76,1.84-1.93-.76-2.57,1.18.73,1.15-1.29,1.13-1.62-.57-1.1,1.76-4.42.96-.28,4.42-9.11-1.53-5.84,1.83-1.86,1.41,2.56-.99-1.13,2.43-2.52.82-.61-.1.85-.71-.49-1.18-1.79-1.06-1.41,1.1,1.62,2.03-11.67,5.18-1.63,3.11-12.85,6.9-3.98,2.89-2.82,3.23-1.9-.28,2.12.9,1.3-.47-6.69,8.33-.28-2.47,1.98-1.23-3.27.21-1.01,1.43.16-2.69-.87,1.58-1.84-1.16.57,1.56-1.43.3,1.72,1.5-1.22,1.36-5.62-2.56.66,2.99,7.27,1.55-3.74,5.7-.78-.99-.09,1.18-3.88.28,4.28-.03-.59,6.61-2.94.85-1.3-3.25.83,3.76-.87,1.16,3.95,2.73-1.56,4.69.09,1.43,2.1.96-1.06,1.83.45,4.99.57,1.11,2.16-.09-.35,1.29-1.03-.7-1.62,1.34,1.41,2.92-1.98,1.91,1.43,2.02-1.43,1.48,1.7,4.42-1.46,7.7-2.61,5.34-.7-2.43-1.65-.5.4,2.69,2.05,1.1-12.2,8.22-9.72,10.8-4.89,7.72-5.62,13.46-8.43,12.12-8.95,9.08-14.78,9.35-4.45,4.9,1.36-4.5-1.56-2.56,5.22.57.05-1.15,3.48-.63,3.49-4.05,1.06.78.52-2.66.92.87,2.76-1.3,1.79-3.69-.07-4.35,3.08-.31.8,1.43.83-.9-1.08-.87.19-3.16,4.54-1.63,1.41-1.84-.7-7.55,2.45,2.54.89-.73.52-3.79-1.55-1.7-1.2,2.14-5.01.57-.49,2.4-2.03-1.16.23-2.33-4.36-1.53-1.04-3.79-.9,4.5,2.56,1.27.35,1.55,2.02-.16-3.32,2.29-.4,6.64-1.11-2.9h-1.13l.31,4.92-1.95.21-.63,1.62.89,2.36-3.76,1.13-.28,2.52-6.78,1.58-.92,6.52-1.56-1.83.42,2.23-3.23,1.56-.63,2.52,2.38,1.43-2.16.75-.43,1.81,3.69-.45-1.83,1.43,1.7-.68-.09,2.05-3.37,2.42-8.14,17.75-15.26,12.55-3.34-1.9.07-9.94,8.85-9.32-9.35-5.67-4.09-8.21-10.74-4.82-6.87-7.56-5.09-.71-3.74-3.25-1.2,1.2-3.27-1.7-2.57-4.31-4.64-3.93-5.46,4.71-3.27.16v-5.91l-17.04-14.46-5.11.09-3.49,3.88-6.05-.38-1.56-1.91ZM729.94,387.95l-.4,3.6.68,2.4-1.6-1.5.23-2.12-1.62-.83.28-1.36,2.43-.19ZM734.47,377.5l2.28,2.21-4.14,3.06-.1-1.58,2.54-2-.57-1.69ZM614.25,165.97l-.35,5.09-2.09,2.29.43-5.41,2-1.98ZM665.09,165.97l-1.04,1.13-2.1-1.72,1.98.05,1.16.54ZM632.4,156.65l-.57,2.99-2.03.42.37-2.73,2.24-.68ZM514.55,146.48l-1.88,2.66-1.77-.94,2.38-2.85,1.27,1.13ZM605.98,136.47l-1.77,2.19-1.15-.28.94-2.43,1.98.52ZM534.35,132.12l-.21,2.68-2.66-.85,1.2-1.98,1.67.16ZM537.7,127.42l-.8,3.36-2.19.19,1.32-3.72,1.67.17ZM541.58,123.15l1.86.5-1.56,1.29-.3-1.79ZM482.04,121.36l-.03,3.27-5.35,2.29.71-3.13,2.28-1.43,2.4-1.01ZM548.38,122.04l.05,2.31-1.13.16-.3-1.53-.96-1.25,2.33.31ZM475.34,122.64l-2.35,8.41-1.15-.31-2.16,3.67-6.36,4.85-3.93,1.06.96-4.47,4.16-3.3.17-5.2,2.94-4.42,3.89-2.14-.71,2.56.57-1.55,1.13.26-.19-1.55,3.03,2.12ZM476.23,112.66l-.96,3.44-4.95,3.2,3.58-5.82,2.33-.82ZM533.41,117.24l-2.64,7.96-1.56-1.29.92,3.98-2.85,2.66.45,1.72-3.65,2.47-2.12-1.27,2.59,2.64-.76,3.06-2.28-2.49-.99-.09.92.35-.92,1.36.94-.57,2.21,2.16-4.71,1.7-2.75-2.99.33,3.7-.99.16,1.27.26-1.13.73-2.71-.99-.71-1.86.61,3.18-1.76-.03-1.11-2.87h-.73l-.57,4.71-2.69.94-1.16-3.93-.66,4.71-4.69-1.29-.54-1.86-2.64,2.56-1.44-.83-.28-2.43-.83-.5.59-.71-.17-1.63-.71,2.35,1.04.92-.47,2.14-.87-1.84.45,2.07-1.7.35,1.46.66-2.26.56-4.12-1.22.33-1.83-4.49-5.18.23-7.25,4.83,2.02-1.18-1.32,2.92-1.67-3.89,1.15-2.68-1.58,1.15-9.7,1.11,1.83,2.82.8-2.8-1.13-.28-5.48,2.35-3.49,4.47-1.81,14.86,2.82,5.53.35.02-1.51,3.76-.92,16.19,2.49,1.2,2.09ZM478.47,115.43l-.42-2.19,1.77-3.25,3.77-1.2,2.45,1.67.19,1.81-5.91,4.35-1.86-1.18ZM503.19,111.2l6.8-3.23,3.09,1.98-3.01,2.56-4.66.31-2.23-1.62ZM486.26,108.07l.57-2.14,2.5.5,1.08,3.3-2.54.09-1.62-1.76ZM497.58,102.7l-1.5,1.6-1.15.33,2.64-1.93ZM499.44,103.29l7.35-1.58,2.49.68-6.99,7.58-2.87.87-1.93-1.74-5.15-.35-.68-3.34,5.62-.28,2.16-1.84ZM492.94,103.33l-2.12,2.92-2.03-.83,3.11-8.55,1.04,6.47ZM492.92,100.23l1.23-2.66,2.87.3.78-1.58.92.85-.09,2-4.31,3.11-1.41-2.02ZM497.37,94.04l-3.74-.3,1.2-1.86,2.36-1.23,2,.54-1.83,2.85ZM500.27,89.51l-2.83.3,3.62-2.29-.78,2ZM490.35,65.93l2.64,2.9-2.17,2.19-2.19-2.89.42-1.96,1.3-.24ZM488.02,65.03l1.88-.75.99,1.25-1.72.4-1.15-.9ZM532.23,679.08l1.03,1.44-.63,2.5-1.63,4.07-1.62.89.54-7.09,2.31-1.81ZM530.92,655.11l-1.95,3.86-2.5-2.28,3.23-3.01,1.22,1.43ZM544.59,627.62l7.98-4.71-9.41,7.27,1.43-2.56ZM574.49,606.97l2.1,1.48-2.66-.9.56-.57ZM597.82,605.91l.61,2.07-4.4-1.6,3.01-3.53,1.67,1.06-.89,2ZM622.46,591.22l-5.02,1.23-.82-1.16,2.73-2.02,3.11,1.95ZM864.6,189.77l.77.26-1.3.33.54-.59ZM534.04,638.26l1.84-1.27-.83,2.59-1.01-1.32ZM814.52,269.72l.5,1.1-.75,1.34-.5-.99.75-1.44ZM660.62,166.63l2.1-.02.89.76-2.99-.75ZM627.69,160.51l1.44-.28-.12,1.41-1.41.23.09-1.36ZM633.67,158.81l-.3,1.2-.85-.12-.12-.8,1.27-.28ZM509.38,144.51l2.1.5-1.76.99-.35-1.5Z"/>
</svg>