<?xml version="1.0" encoding="UTF-8"?>
<svg id="Capa_1" data-name="Capa 1" xmlns="http://www.w3.org/2000/svg" viewBox="0 0 263.52 381.09">
  <defs>
    <style>
      .cls-1 {
        fill: #aa8759;
        stroke: #2aaad4;
        stroke-linecap: round;
        stroke-linejoin: round;
        stroke-width: .5px;
      }
    </style>
  </defs>
  <path class="cls-1" d="M243.44,366.04l-4.4,1.36,1.39,6.03-3.89,5.6-8.81,1.81-10.81-8.14-9.77-5.16-.33-6.19-2.36-2.4-12.55-5.53-6.69-6.33-7.09-1.77-13.28-6.99-5.82-1.01-7.2-5.91-20.83-10.38-2.92-1.9.78-.76-2.31-1.72.59-.75-2.96-1.67-2.69-4.49-8.81-5.58-1.04-3.91-3.18-2.12-.33-2.82-2.94-1.18-.03-5.55-2.1.16.66-2.21,2.24,1.03,1.51-6.47-.83-3.79-12.01-17.63.17-2.66-5.15-3.69-.31-1.86-2.52-.89.61-2.9-1.36-5.95-3.11-3.84-5.96-3.51,1.1-2.64-1.58-4.94-10.64-16.99-.97-6.59-2.92-3.7-.94-5.27-2.31-1.93.61-1.65-1.27-.12.1,1.25-1.2-1.41,1.06-1.01-4.24-7.34.09-3.46-3.76-3.6.8-1.22-1.74-3.32-9.98-10.41.63-.87-3.06-4.38-.63-4.1-8.14-10.92-16.34-9.18-7.51-6.73,1.6-3.93,2.14,1.23,1.43-.66.97-3.41-1.56-3.88-5.55-5.32.75-2.82,1.65.14.42-1.18-5.7-7.15.17-4.19,1.36-4.66,8.24-7.89,1.23-2.78,5.65-4.87,3.15-.56.92-1.76,1.27.45,2.36,9.86-3.32,2.61h-3.46l.47,4.12,2.57-.31-2.87,4.9,2.09.87,5.04-4.02,6.4,4.07,3.63-.83,3.13,1.93,1.18,5.79,3.06,3.15,4.97,1.04,3.41-3.48.03-3.11,4.69-2.97.75-2.42-.96-2.24,2.5-7.22,2.97-3.93,1.43-8.35,1.95.42.64,2.02,1.3-.61-.68-2.36,6.82-7.77,25.83-9.41,11.11-8.48,10.76-12.31,3.34-12.74,3.84.82-1.44-4.5.76-4.22-3.03-2.1-1.63-4.05-3.18-2.83,6.1.78,2.85-2.49,5.69,3.76,2.26-.82,1.44,2.24-.73.71,3.08.56,4.66,4.22,3.15,8.94,3.95.38,4.57,4.57,2.12-.57,2.47,1.5,2.89,4.62-.7,4.07,3.76,2.43,1.93-1.01,1.34.97,1.7,5.91-1.81,2.92,5.46,4.4,4.19-1.2.43,1.13,1.43-1.83,5.53,2.42,4.19-.83,2.4-1.88,2.35.09,4.21-3.98.3,1.2,4.02.68.83,1.91.87-1.25.75,2.52,4.4-.76,4.5-2.94,5.95,2.71,1.22,2.54,1.44-.94,2.76,1.95,1.83-.24-.14,1.46,1.88-.23,2.57,2.56.92-.92,1.15,1.86-14.2,22.18,5.06,2,3.74-1.01,2.54,4.14,4.07,3.16.07,2.78-1.27.47-1.83-1.6-1.39,1.72-2.31-2-.3-2.16-3.84.82-.71-.87-.73,1.11-1.29-1.63-3.84,1.32-2.85,4.28-6.15-.19-2.03,1.74-11.32,1.23-9.94,5.72-5.39,5.55-5.67,1.48-1.23,10.81-5.35,8.85,1.81,8.28-12.71,8.55-1.11,4.49,2.07,4.19-5.62,1.08.82,1.91-1.55,1.98,6.36,5.08-1.51,3.16,2.43,1.53,2.64,7.18,3.82,2.5.12,2.47,3.67,2.54,4.12,5.51.09,3.09-5.04,5.7,8.35.03,10.4,2.54.99,4.76,2.14,2.4-.7,2.66,18.64-.24,16.1-11.7-.82,2.8-1.25.02,1.72,2.96-2.02,2.99-.05,24.08,2.23-1.51,2.02,2.05,3.08.59,6.92-3.03,7.88.68,18.57,32.23-2.28,2.45.57,1.88-4.47,3.27.21,13.16-1.1,2.78-1.62.66,1.77,1.79.7,4.55,2.45,4.55-3.03,1.13.42,2.76-3.62,2.59-.12,1.55-1.34-.07-.7,3.67-2.14,1.06-.28,3.74,4.9,5.23-2.97,2.43-2.89,5.74,5.09,11.82,4.22.31,3.08,2.47-4.03,2.61-.19,4.49-3.03,1.22-5.09,7.44-4.05,2.05-.92,2.14,2.99,1.69.26,2.85-2.66,2.49ZM107.14,296.13l.33.66-.85-.66h.52ZM101.69,286.99l.33.64h-.61l.28-.64ZM85.58,250.44l1.06,1.06-1.5-1.1.43.03ZM10.4,132.45l.19,1.79-.5.02-.24-.89.56-.92Z"/>
</svg>